<svg width="500" height="500" viewBox="0 0 500 500" fill="none" xmlns="http://www.w3.org/2000/svg">
<g clip-path="url(#clip0_9_5)">
<path fill-rule="evenodd" clip-rule="evenodd" d="M112.845 459.756C184.453 408.035 300.182 392.034 372.034 457.609C390.973 437.49 410.436 417.266 431.032 398.159C431.241 390.272 427.841 388.666 422.783 389.905L411.29 402.382C344.531 361.864 300.304 354.971 246.834 380.762C240.242 382.733 236.684 382.193 239.789 376.12C257.874 356.42 276.081 338.551 290.102 319.095C301.769 303.792 322.383 271.493 318.825 199.426C314.552 144.094 285.428 52.6583 358.832 48.8718C370.15 48.3308 370.708 38.943 359.669 39.8853C335.864 40.6705 314.797 44.9456 298.177 54.8569C240.416 78.9896 261.832 170.233 264.832 217.731C271.476 291.141 256.827 349.387 198.457 394.896C196.974 393.029 196.189 390.9 197.253 388.387C259.897 303.862 231.435 223.821 228.366 133.013C231.452 93.2633 251.212 65.2918 276.185 43.7591C276.237 43.6893 280.51 35.3833 269.297 41.7698C239.684 58.6086 219.89 67.979 177.18 48.61C132.378 26.9901 88.4821 43.7242 69.3856 95.5143C69.6995 103.855 71.6005 105.321 76.344 100.662L87.9763 88.6043C96.5915 81.8165 104.858 85.7426 119.961 87.7667C150.044 99.7022 176.953 100.33 200.95 90.6808C206.653 88.8137 208.589 90.0526 206.758 94.415C180.459 124.481 170.204 160.636 176.029 202.881C177.041 210.803 174.617 213.787 170.623 214.52L143.033 214.956C124.181 218.638 113.177 228.532 111.991 241.235L136.162 241.933C159.27 246.051 182.464 259.487 180.093 288.262L152.468 287.843C146.765 287.18 120.362 299.988 135.534 304.368C164.031 311.871 185.133 324.469 184.261 350.085C181.54 389.294 150.933 422.431 106.148 454.032L112.845 459.756Z" fill="white" stroke="white" stroke-width="0.286601" stroke-miterlimit="22.93"/>
</g>
<defs>
<clipPath id="clip0_9_5">
<rect width="362.047" height="420.83" fill="white" transform="translate(69.1938 39.1699)"/>
</clipPath>
</defs>
</svg>
